<svg width="123" height="17" viewBox="0 0 123 17" fill="none" xmlns="http://www.w3.org/2000/svg">
<path d="M18.1344 6.22492C18.0154 5.88685 17.6888 5.64673 17.3025 5.61476L12.0547 5.1772L9.97962 0.717157C9.82661 0.390293 9.47815 0.178711 9.09098 0.178711C8.70382 0.178711 8.35535 0.390293 8.20234 0.717921L6.12724 5.1772L0.878647 5.61476C0.493007 5.64749 0.167293 5.88685 0.0475785 6.22492C-0.0721365 6.56299 0.038423 6.9338 0.33015 7.16755L4.29684 10.362L3.12715 15.0934C3.04156 15.4413 3.1886 15.8009 3.50294 16.0095C3.6719 16.1216 3.86958 16.1787 4.06892 16.1787C4.24079 16.1787 4.41128 16.1362 4.56429 16.0521L9.09098 13.5678L13.616 16.0521C13.9471 16.235 14.3645 16.2183 14.6782 16.0095C14.9927 15.8003 15.1396 15.4405 15.054 15.0934L13.8843 10.362L17.851 7.16819C18.1427 6.9338 18.2541 6.56363 18.1344 6.22492Z" fill="#FEC031"/>
<path d="M44.316 6.22492C44.197 5.88685 43.8705 5.64673 43.4841 5.61476L38.2364 5.1772L36.1613 0.717157C36.0083 0.390293 35.6598 0.178711 35.2726 0.178711C34.8855 0.178711 34.537 0.390293 34.384 0.717921L32.3089 5.1772L27.0603 5.61476C26.6746 5.64749 26.3489 5.88685 26.2292 6.22492C26.1095 6.56299 26.2201 6.9338 26.5118 7.16755L30.4785 10.362L29.3088 15.0934C29.2232 15.4413 29.3702 15.8009 29.6846 16.0095C29.8535 16.1216 30.0512 16.1787 30.2506 16.1787C30.4224 16.1787 30.5929 16.1362 30.7459 16.0521L35.2726 13.5678L39.7977 16.0521C40.1288 16.235 40.5462 16.2183 40.8598 16.0095C41.1743 15.8003 41.3212 15.4405 41.2356 15.0934L40.0659 10.362L44.0326 7.16819C44.3244 6.9338 44.4357 6.56363 44.316 6.22492Z" fill="#FEC031"/>
<path d="M70.4977 6.22492C70.3786 5.88685 70.0521 5.64673 69.6658 5.61476L64.418 5.1772L62.3429 0.717157C62.1899 0.390293 61.8414 0.178711 61.4543 0.178711C61.0671 0.178711 60.7186 0.390293 60.5656 0.717921L58.4905 5.1772L53.2419 5.61476C52.8563 5.64749 52.5306 5.88685 52.4109 6.22492C52.2911 6.56299 52.4017 6.9338 52.6934 7.16755L56.6601 10.362L55.4904 15.0934C55.4048 15.4413 55.5519 15.8009 55.8662 16.0095C56.0352 16.1216 56.2329 16.1787 56.4322 16.1787C56.6041 16.1787 56.7746 16.1362 56.9276 16.0521L61.4543 13.5678L65.9793 16.0521C66.3104 16.235 66.7278 16.2183 67.0415 16.0095C67.3559 15.8003 67.5029 15.4405 67.4173 15.0934L66.2476 10.362L70.2143 7.16819C70.506 6.9338 70.6174 6.56363 70.4977 6.22492Z" fill="#FEC031"/>
<path d="M96.6803 6.22492C96.5613 5.88685 96.2347 5.64673 95.8484 5.61476L90.6006 5.1772L88.5255 0.717157C88.3725 0.390293 88.024 0.178711 87.6369 0.178711C87.2497 0.178711 86.9013 0.390293 86.7482 0.717921L84.6731 5.1772L79.4245 5.61476C79.0389 5.64749 78.7132 5.88685 78.5935 6.22492C78.4738 6.56299 78.5843 6.9338 78.876 7.16755L82.8427 10.362L81.6731 15.0934C81.5875 15.4413 81.7345 15.8009 82.0488 16.0095C82.2178 16.1216 82.4155 16.1787 82.6148 16.1787C82.7867 16.1787 82.9572 16.1362 83.1102 16.0521L87.6369 13.5678L92.1619 16.0521C92.493 16.235 92.9104 16.2183 93.2241 16.0095C93.5386 15.8003 93.6855 15.4405 93.5999 15.0934L92.4302 10.362L96.3969 7.16819C96.6886 6.9338 96.8 6.56363 96.6803 6.22492Z" fill="#FEC031"/>
<path d="M122.626 6.30823L122.626 6.30794C122.543 6.07173 122.307 5.88856 122.009 5.86391L122.009 5.86389L116.761 5.42633L116.617 5.41427L116.556 5.28266L114.481 0.823146C114.481 0.82304 114.481 0.822933 114.481 0.822827C114.372 0.591557 114.117 0.428711 113.819 0.428711C113.52 0.428711 113.265 0.591472 113.157 0.823396L122.626 6.30823ZM122.626 6.30823C122.709 6.54114 122.636 6.80158 122.422 6.9733L122.422 6.97346L118.455 10.1673L118.331 10.2673L118.369 10.422L119.539 15.1533L122.626 6.30823ZM109.171 15.833L109.172 15.8329L113.698 13.3486L113.819 13.2826L113.939 13.3486L118.464 15.8329L118.464 15.8333C118.714 15.9713 119.032 15.9582 119.267 15.8014L119.267 15.8014C119.5 15.6465 119.597 15.3911 119.539 15.1534L109.171 15.833ZM109.171 15.833C109.056 15.8964 108.927 15.9287 108.796 15.9287C108.645 15.9287 108.495 15.8852 108.369 15.8013L109.171 15.833ZM111.081 5.28267L113.156 0.823708L108.369 15.8012C108.136 15.647 108.039 15.392 108.097 15.1533C108.097 15.1532 108.097 15.1532 108.097 15.1531L109.267 10.422L109.305 10.2673L109.181 10.1673L105.214 6.97284L105.214 6.97245C105.001 6.80177 104.928 6.54107 105.011 6.30837C105.095 6.07179 105.33 5.88924 105.627 5.86389C105.627 5.86388 105.627 5.86387 105.627 5.86386L110.876 5.42633L111.02 5.41428L111.081 5.28267Z" stroke="#FEC031" stroke-width="0.5"/>
<path d="M122.862 6.22492C122.743 5.88685 122.416 5.64673 122.03 5.61476L116.782 5.1772L114.707 0.717157C114.554 0.390293 114.206 0.178711 113.819 0.178711C113.431 0.178711 113.083 0.390293 112.93 0.717921L110.855 5.1772L105.606 5.61476C105.221 5.64749 104.895 5.88685 104.775 6.22492C104.655 6.56299 104.766 6.9338 105.058 7.16755L109.024 10.362L107.855 15.0934C107.769 15.4413 107.916 15.8009 108.23 16.0095C108.399 16.1216 108.597 16.1787 108.796 16.1787C108.968 16.1787 109.139 16.1362 109.292 16.0521L113.819 13.5678L118.344 16.0521C118.675 16.235 119.092 16.2183 119.406 16.0095C119.72 15.8003 119.867 15.4405 119.782 15.0934L118.612 10.362L122.579 7.16819C122.87 6.9338 122.982 6.56363 122.862 6.22492Z" fill="#FEC031"/>
</svg>
